# xmcd CD database file
#
# Track frame offsets:
#	150
#	18182
#	31617
#	49007
#	62512
#	75525
#	90000
#	107642
#	123504
#	137800
#	152455
#	167110
#	181775
#	195192
#	209045
#	225545
#
# Disc length: 3247 seconds
#
# Revision: 1
# Processed by: cddbd v1.5.2PL0 Copyright (c) Steve Scherf et al.
# Submitted via: CDex 1.51
#
DISCID=b50cad10
DTITLE=Mastruz com Leite - Solando Pra Você Dançar e Cantar Volume III
DYEAR=1900
DGENRE=Forró
TTITLE0=flores e espinhos - coração pecador
TTITLE1=nossa canção
TTITLE2=eu, você e o amor - fica comigo
TTITLE3=vem dançar forró - sala de reunião
TTITLE4=chuva passageira
TTITLE5=diz que me ama, porra! - doido por forró
TTITLE6=pra gente voltar - serpente
TTITLE7=trânsito engarrafado
TTITLE8=bichinho de estimação - como te queria
TTITLE9=medo de te perder
TTITLE10=juras de amor - mais que amigos
TTITLE11=te procuro - vem pro meu mundo
TTITLE12=mar de solidão
TTITLE13=decepção
TTITLE14=greve de amor
TTITLE15=rala coxa - as quatro operações
EXTD=
EXTT0=
EXTT1=
EXTT2=
EXTT3=
EXTT4=
EXTT5=
EXTT6=
EXTT7=
EXTT8=
EXTT9=
EXTT10=
EXTT11=
EXTT12=
EXTT13=
EXTT14=
EXTT15=
PLAYORDER=
